#!OML:ASF F:\VICON\USERDATA\INSTALL\rory3\rory3.ASF
:FULLY-SPECIFIED
:DEGREES
700
root -1.22024 29.7882 -10.3637 177.384 224.769 -178.119
lowerback 8.35247 2.24913 -3.70066
upperback 1.43415 2.52827 -2.62412
thorax -3.23531 1.26675 -0.91846
lowerneck -6.73418 4.67321 -7.94
upperneck 27.7895 5.47999 8.3153
head 9.3012 2.50317 4.76018
rclavicle 5.56597e-015 1.27222e-014
rhumerus -29.8536 11.8327 -84.5296
rradius 37.8217
rwrist 21.6344
rhand -19.8132 3.94449
rfingers 7.12502
rthumb 6.52019 -25.9351
lclavicle 5.56597e-015 1.27222e-014
lhumerus -27.4408 18.14 75.658
lradius 24.4466
lwrist -3.15897
lhand -20.2067 25.8208
lfingers 7.12502
lthumb 6.14027 55.7118
rfemur -11.7455 23.7962 16.7466
rtibia 32.2365
rfoot -23.5798 -5.50919
rtoes -12.4581
lfemur -11.3061 -6.54148 -20.5182
ltibia 26.7935
lfoot -10.8651 1.58767
ltoes 2.32137
701
root -1.25368 29.7865 -10.3865 177.651 224.216 -178.484
lowerback 8.3684 2.18962 -3.51648
upperback 1.49426 2.47357 -2.49186
thorax -3.17905 1.23815 -0.87697
lowerneck -6.99152 4.66669 -8.03566
upperneck 28.1797 5.52593 8.21433
head 9.48724 2.49707 4.77527
rclavicle -6.49032e-014 1.59028e-014
rhumerus -29.8034 12.0372 -84.5047
rradius 37.6999
rwrist 21.5241
rhand -20.0167 3.96002
rfingers 7.12502
rthumb 6.32368 -25.9256
lclavicle -6.49032e-014 1.59028e-014
lhumerus -27.3176 18.0978 75.8168
lradius 24.765
lwrist -2.88822
lhand -20.2415 26.2428
lfingers 7.12502
lthumb 6.1067 56.1348
rfemur -11.6711 24.6168 16.9953
rtibia 31.6061
rfoot -23.0284 -4.95975
rtoes -12.0579
lfemur -11.3917 -6.7367 -20.1016
ltibia 26.8362
lfoot -10.6774 1.19167
ltoes 2.41063
702
root -1.28872 29.7867 -10.4116 177.564 223.494 -178.222
lowerback 8.37832 2.19735 -3.7267
upperback 1.4895 2.46222 -2.53891
thorax -3.19615 1.23435 -0.80777
lowerneck -7.0251 4.58063 -8.05969
upperneck 28.4113 5.425 8.14825
head 9.58918 2.43542 4.76213
rclavicle 6.97734e-014 -3.18055e-015
rhumerus -29.9141 11.9124 -84.47
rradius 37.6463
rwrist 21.4208
rhand -20.2161 3.64953
rfingers 7.12502
rthumb 6.1312 -26.2418
lclavicle 6.97734e-014 -3.18055e-015
lhumerus -27.1734 17.6912 76.0086
lradius 25.0645
lwrist -2.69694
lhand -21.561 26.026
lfingers 7.12502
lthumb 4.83272 55.9509
rfemur -11.6665 25.2058 16.6991
rtibia 31.0409
rfoot -22.5282 -4.22223
rtoes -8.95215
lfemur -11.6171 -7.09004 -20.184
ltibia 26.9365
lfoot -10.5017 0.894888
ltoes 2.56431
703
root -1.3225 29.7839 -10.4373 177.403 222.708 -177.81
lowerback 8.42922 2.22418 -3.9908
upperback 1.45533 2.46475 -2.64824
thorax -3.26633 1.23826 -0.77726
lowerneck -7.10069 4.45078 -7.97167
upperneck 28.7559 5.26974 7.9803
head 9.7541 2.34595 4.69699
rclavicle 4.47266e-014 -3.26007e-014
rhumerus -30.0627 11.641 -84.4514
rradius 37.556
rwrist 21.3042
rhand -20.3903 3.17633
rfingers 7.12502
rthumb 5.96305 -26.7198
lclavicle 4.47266e-014 -3.26007e-014
lhumerus -27.041 17.0532 76.2641
lradius 25.3129
lwrist -1.80078
lhand -22.7807 24.971
lfingers 7.12502
lthumb 3.65491 54.9194
rfemur -11.6367 25.3863 16.3232
rtibia 30.5707
rfoot -21.79 -3.76975
rtoes -5.24648
lfemur -11.9135 -7.3984 -20.3957
ltibia 27.0851
lfoot -10.3038 0.537961
ltoes 2.10468
704
root -1.35935 29.7785 -10.4607 177.533 222.13 -177.96
lowerback 8.46177 2.21619 -3.89687
upperback 1.46982 2.46443 -2.59097
thorax -3.26792 1.23776 -0.771189
lowerneck -7.31275 4.39572 -7.98799
upperneck 29.1986 5.24258 7.83588
head 9.96597 2.30562 4.67795
rclavicle 6.10269e-014 1.03368e-014
rhumerus -30.1522 11.6161 -84.4191
rradius 37.4296
rwrist 21.3112
rhand -20.7033 3.58901
rfingers 7.12502
rthumb 5.66083 -26.3154
lclavicle 6.10269e-014 1.03368e-014
lhumerus -27.039 16.244 76.6939
lradius 25.6873
lwrist 0.441184
lhand -22.5481 25.273
lfingers 7.12502
lthumb 3.87948 55.2174
rfemur -11.4885 25.2876 16.5546
rtibia 30.2609
rfoot -20.7716 -3.64909
rtoes -3.35022
lfemur -12.0977 -7.57013 -20.1407
ltibia 27.2382
lfoot -10.1814 0.158905
ltoes 1.31593
705
root -1.39806 29.7738 -10.4839 177.818 221.721 -178.476
lowerback 8.5376 2.20977 -3.52414
upperback 1.52317 2.49526 -2.43269
thorax -3.24631 1.25028 -0.820232
lowerneck -7.5901 4.37585 -8.07427
upperneck 29.6734 5.28317 7.69944
head 10.1956 2.28868 4.68349
rclavicle 2.95195e-014 -1.90833e-014
rhumerus -30.1686 11.6333 -84.3615
rradius 37.3203
rwrist 21.3927
rhand -20.8839 4.23862
rfingers 7.12502
rthumb 5.4864 -25.6704
lclavicle 2.95195e-014 -1.90833e-014
lhumerus -26.9422 15.6211 77.1035
lradius 25.9642
lwrist 2.44578
lhand -22.7029 25.6969
lfingers 7.12502
lthumb 3.73 55.644
rfemur -11.2315 24.8771 17.2376
rtibia 30.1195
rfoot -19.7905 -3.95044
rtoes -4.14762
lfemur -12.1538 -7.66493 -19.5777
ltibia 27.3911
lfoot -10.1535 -0.175623
ltoes 1.65201
706
root -1.4373 29.7733 -10.5095 177.976 221.194 -178.706
lowerback 8.5348 2.1854 -3.33035
upperback 1.5702 2.48494 -2.38758
thorax -3.18956 1.24311 -0.878971
lowerneck -7.79392 4.35655 -8.04239
upperneck 30.0593 5.30256 7.55427
head 10.386 2.27482 4.65641
rclavicle -1.49089e-014 2.54444e-014
rhumerus -30.0939 11.4465 -84.3519
rradius 37.1342
rwrist 21.5521
rhand -20.8422 4.60681
rfingers 7.12502
rthumb 5.52667 -25.3011
lclavicle -1.49089e-014 2.54444e-014
lhumerus -26.5038 15.4101 77.1473
lradius 25.6036
lwrist 2.70333
lhand -22.5306 25.6232
lfingers 7.12502
lthumb 3.89635 55.5673
rfemur -11.0593 24.1431 17.6923
rtibia 30.1011
rfoot -19.1376 -4.87175
rtoes -5.80163
lfemur -12.2742 -7.89536 -19.2424
ltibia 27.5195
lfoot -10.1257 -0.45902
ltoes 1.9573
707
root -1.47632 29.7704 -10.536 177.847 220.514 -178.503
lowerback 8.45063 2.15702 -3.36437
upperback 1.7084 2.44795 -2.51258
thorax -2.99494 1.22167 -0.977812
lowerneck -7.98063 4.2892 -7.97094
upperneck 30.2776 5.23362 7.4687
head 10.5179 2.23709 4.62674
rclavicle -7.8023e-014 2.54444e-014
rhumerus -29.8676 11.1279 -84.4066
rradius 36.8869
rwrist 21.7393
rhand -21.2029 5.23531
rfingers 7.12502
rthumb 5.17847 -24.6814
lclavicle -7.8023e-014 2.54444e-014
lhumerus -26.5497 15.5854 76.9038
lradius 26.333
lwrist 1.63118
lhand -21.7947 25.5905
lfingers 7.12502
lthumb 4.60698 55.5204
rfemur -10.915 23.2863 17.7534
rtibia 30.1719
rfoot -18.8953 -5.56354
rtoes -5.54803
lfemur -12.3441 -8.12366 -19.2827
ltibia 27.5234
lfoot -10.0024 -0.855754
ltoes 1.26831
708
root -1.51522 29.7678 -10.565 177.832 219.87 -178.414
lowerback 8.44704 2.14089 -3.35659
upperback 1.78776 2.42765 -2.57609
thorax -2.90738 1.20994 -1.04327
lowerneck -8.20819 4.21843 -7.95144
upperneck 30.5458 5.16985 7.39435
head 10.675 2.19609 4.6145
rclavicle -4.96962e-016 -3.02153e-014
rhumerus -29.7756 11.0399 -84.4686
rradius 36.8096
rwrist 21.6392
rhand -21.4241 5.23938
rfingers 7.12502
rthumb 4.96485 -24.6825
lclavicle -4.96962e-016 -3.02153e-014
lhumerus -26.3936 15.5993 76.7881
lradius 26.5965
lwrist 1.0424
lhand -22.3577 24.3258
lfingers 7.12502
lthumb 4.06332 54.2668
rfemur -10.8637 22.4741 17.8709
rtibia 30.2576
rfoot -18.7727 -5.58525
rtoes -4.56479
lfemur -12.3931 -8.20988 -19.205
ltibia 27.3723
lfoot -9.81591 -1.36525
ltoes 0.362311
709
root -1.55476 29.771 -10.5924 177.847 219.257 -178.378
lowerback 8.50941 2.13078 -3.35679
upperback 1.79651 2.41147 -2.57541
thorax -2.93283 1.20215 -1.04298
lowerneck -8.37504 4.1444 -8.00298
upperneck 30.908 5.10991 7.3109
head 10.855 2.14343 4.61376
rclavicle -1.39149e-013 3.97569e-014
rhumerus -29.8035 11.1168 -84.5274
rradius 36.8844
rwrist 21.0688
rhand -21.14 4.19334
rfingers 7.12502
rthumb 5.23913 -25.7219
lclavicle -1.39149e-013 3.97569e-014
lhumerus -26.1934 15.4361 76.8148
lradius 26.526
lwrist 1.0509
lhand -22.8674 23.4486
lfingers 7.12502
lthumb 3.57111 53.3984
rfemur -10.7667 21.7988 18.0406
rtibia 30.2749
rfoot -18.6723 -5.48036
rtoes -3.81096
lfemur -12.3675 -8.4364 -19.0861
ltibia 27.126
lfoot -9.6956 -1.72181
ltoes 0.338294
710
root -1.59578 29.7774 -10.6168 177.807 218.667 -178.34
lowerback 8.5878 2.14143 -3.31269
upperback 1.81951 2.42635 -2.5768
thorax -2.95072 1.20928 -1.07329
lowerneck -8.23611 4.10529 -7.6941
upperneck 31.0985 5.07777 6.96656
head 10.9291 2.11623 4.43678
rclavicle 7.34509e-014 -1.59028e-015
rhumerus -29.8292 11.0367 -84.5195
rradius 36.9002
rwrist 20.7369
rhand -20.8701 3.84425
rfingers 7.12502
rthumb 5.49977 -26.0644
lclavicle 7.34509e-014 -1.59028e-015
lhumerus -26.0511 15.2966 76.8547
lradius 26.4048
lwrist 0.980955
lhand -23.0417 22.9371
lfingers 7.12502
lthumb 3.40284 52.8897
rfemur -10.5475 21.2433 18.2381
rtibia 30.1853
rfoot -18.4509 -5.69787
rtoes -3.396
lfemur -12.2347 -8.67242 -18.992
ltibia 26.826
lfoot -9.54101 -1.99394
ltoes 0.352434
711
root -1.63871 29.7853 -10.6428 177.828 218.176 -178.35
lowerback 8.62524 2.20029 -3.27024
upperback 1.80958 2.50744 -2.55427
thorax -2.98157 1.24987 -1.08465
lowerneck -8.12953 4.04456 -7.51837
upperneck 31.3246 5.0228 6.70168
head 11.0179 2.07251 4.31228
rclavicle 1.20364e-013 -3.18055e-015
rhumerus -29.8881 10.8323 -84.46
rradius 36.7751
rwrist 20.7235
rhand -21.0947 4.10778
rfingers 7.12502
rthumb 5.28296 -25.8064
lclavicle 1.20364e-013 -3.18055e-015
lhumerus -26.0015 15.4502 76.7832
lradius 26.4151
lwrist 0.0563409
lhand -22.9537 23.192
lfingers 7.12502
lthumb 3.48785 53.1432
rfemur -10.341 20.8939 18.4736
rtibia 30.0233
rfoot -18.1512 -6.30299
rtoes -3.53111
lfemur -12.1121 -8.74846 -18.8227
ltibia 26.4784
lfoot -9.34834 -2.34326
ltoes 0.232304
712
root -1.68266 29.7944 -10.6669 177.934 217.643 -178.358
lowerback 8.55433 2.21971 -3.20263
upperback 1.7668 2.54267 -2.55644
thorax -2.98378 1.26769 -1.12678
lowerneck -8.03417 4.00141 -7.46319
upperneck 31.497 5.00012 6.50825
head 11.0786 2.04039 4.23512
rclavicle 3.28989e-014 1.59028e-014
rhumerus -29.9897 10.6108 -84.4878
rradius 36.651
rwrist 20.7477
rhand -21.2894 3.57586
rfingers 7.12502
rthumb 5.09487 -26.3429
lclavicle 3.28989e-014 1.59028e-014
lhumerus -25.9255 15.6814 76.5779
lradius 26.4514
lwrist -1.45955
lhand -22.6108 25.0829
lfingers 7.12502
lthumb 3.81895 55.0284
rfemur -10.1918 20.7641 18.6815
rtibia 29.831
rfoot -17.9849 -6.93467
rtoes -3.31559
lfemur -12.0913 -8.82731 -18.6453
ltibia 26.1183
lfoot -9.07851 -2.66525
ltoes 0.16207
713
root -1.72392 29.8033 -10.6884 178.105 217.01 -178.367
lowerback 8.40855 2.17733 -3.0801
upperback 1.73235 2.50447 -2.57586
thorax -2.93225 1.24833 -1.20576
lowerneck -7.93073 3.90741 -7.52985
upperneck 31.5342 4.92768 6.32626
head 11.0857 1.97757 4.1712
rclavicle 8.65707e-014 -5.56597e-015
rhumerus -30.0077 10.3303 -84.52
rradius 36.4863
rwrist 20.7382
rhand -21.386 3.23209
rfingers 7.12502
rthumb 5.00168 -26.6889
lclavicle 8.65707e-014 -5.56597e-015
lhumerus -25.7488 15.4281 76.6303
lradius 26.2531
lwrist -0.871207
lhand -22.5543 26.6714
lfingers 7.12502
lthumb 3.87354 56.616
rfemur -10.1064 20.5973 18.8448
rtibia 29.6326
rfoot -17.9537 -7.23186
rtoes -2.91023
lfemur -12.1831 -9.09842 -18.4606
ltibia 25.8085
lfoot -8.8618 -2.97263
ltoes 0.72274
714
root -1.76279 29.811 -10.7113 178.115 216.438 -178.282
lowerback 8.42591 2.16054 -3.03517
upperback 1.73258 2.48451 -2.60876
thorax -2.93823 1.23818 -1.26341
lowerneck -7.88969 3.82449 -7.51281
upperneck 31.5573 4.86647 6.12484
head 11.1018 1.92838 4.0885
rclavicle -2.76311e-014 2.78299e-014
rhumerus -29.9935 10.2375 -84.5254
rradius 36.4596
rwrist 20.8921
rhand -20.9732 2.95272
rfingers 7.12502
rthumb 5.40023 -26.9585
lclavicle -2.76311e-014 2.78299e-014
lhumerus -25.5589 14.7467 76.9473
lradius 25.9381
lwrist 1.74725
lhand -22.9659 26.9831
lfingers 7.12502
lthumb 3.47607 56.9345
rfemur -9.94562 20.3488 18.937
rtibia 29.4437
rfoot -17.9218 -7.31812
rtoes -2.45455
lfemur -12.1574 -9.36756 -18.3859
ltibia 25.5375
lfoot -8.79357 -3.22912
ltoes 1.28767
